<svg xmlns="http://www.w3.org/2000/svg" width="32" height="32" viewBox="0 0 32 32" fill="none">
  <rect width="32" height="32" rx="8" fill="#FF6B35"/>
  <path d="M22 12C22 10.9 21.1 10 20 10H12C10.9 10 10 10.9 10 12V20C10 21.1 10.9 22 12 22H20C21.1 22 22 21.1 22 20V12ZM20 20H12V12H20V20Z" fill="white"/>
  <path d="M16 14C15.45 14 15 14.45 15 15V17C15 17.55 15.45 18 16 18C16.55 18 17 17.55 17 17V15C17 14.45 16.55 14 16 14Z" fill="white"/>
  <path d="M19 15C18.45 15 18 15.45 18 16V17C18 17.55 18.45 18 19 18C19.55 18 20 17.55 20 17V16C20 15.45 19.55 15 19 15Z" fill="white"/>
  <path d="M13 15C12.45 15 12 15.45 12 16V17C12 17.55 12.45 18 13 18C13.55 18 14 17.55 14 17V16C14 15.45 13.55 15 13 15Z" fill="white"/>
</svg> 